<mxfile host="65bd71144e">
    <diagram id="Nc2F03LCoHx2OpUqe3a3" name="Page-1">
        <mxGraphModel dx="742" dy="403" grid="1" gridSize="10" guides="1" tooltips="1" connect="1" arrows="1" fold="1" page="1" pageScale="1" pageWidth="850" pageHeight="1100" math="0" shadow="0">
            <root>
                <mxCell id="0"/>
                <mxCell id="1" parent="0"/>
                <mxCell id="2" value="" style="rounded=0;whiteSpace=wrap;html=1;" parent="1" vertex="1">
                    <mxGeometry x="20" y="20" width="760" height="480" as="geometry"/>
                </mxCell>
                <mxCell id="3" value="Road Buddy" style="text;strokeColor=none;fillColor=none;html=1;fontSize=24;fontStyle=1;verticalAlign=middle;align=center;" parent="1" vertex="1">
                    <mxGeometry x="350" y="40" width="100" height="40" as="geometry"/>
                </mxCell>
                <mxCell id="7" value="" style="group" parent="1" vertex="1" connectable="0">
                    <mxGeometry x="410" y="90" width="350" height="220" as="geometry"/>
                </mxCell>
                <mxCell id="4" value="" style="shape=ext;double=1;rounded=0;whiteSpace=wrap;html=1;" parent="7" vertex="1">
                    <mxGeometry width="350" height="220" as="geometry"/>
                </mxCell>
                <mxCell id="5" value="" style="rounded=1;whiteSpace=wrap;html=1;strokeWidth=2;fillWeight=4;hachureGap=8;hachureAngle=45;fillColor=#99FF33;sketch=1;" parent="7" vertex="1">
                    <mxGeometry x="47.5" y="40" width="255" height="150" as="geometry"/>
                </mxCell>
                <mxCell id="6" value="Map" style="text;strokeColor=none;fillColor=none;html=1;fontSize=19;fontStyle=1;verticalAlign=middle;align=center;" parent="7" vertex="1">
                    <mxGeometry x="125" width="100" height="40" as="geometry"/>
                </mxCell>
                <mxCell id="10" value="Add Attractions Button" style="text;strokeColor=none;fillColor=none;html=1;fontSize=13;fontStyle=1;verticalAlign=middle;align=center;" parent="1" vertex="1">
                    <mxGeometry x="630" y="330" width="100" height="40" as="geometry"/>
                </mxCell>
                <mxCell id="15" value="" style="group" parent="1" vertex="1" connectable="0">
                    <mxGeometry x="170" y="90" width="220" height="130" as="geometry"/>
                </mxCell>
                <mxCell id="11" value="" style="shape=ext;double=1;rounded=0;whiteSpace=wrap;html=1;fontSize=13;" parent="15" vertex="1">
                    <mxGeometry width="220" height="130" as="geometry"/>
                </mxCell>
                <mxCell id="12" value="Day 1:" style="text;strokeColor=none;fillColor=none;html=1;fontSize=17;fontStyle=1;verticalAlign=middle;align=center;" parent="15" vertex="1">
                    <mxGeometry x="60" width="100" height="40" as="geometry"/>
                </mxCell>
                <mxCell id="13" value="&lt;ul style=&quot;font-size: 10px;&quot;&gt;&lt;li style=&quot;font-size: 10px;&quot;&gt;Starting Location:&lt;/li&gt;&lt;li style=&quot;font-size: 10px;&quot;&gt;Ending Location&lt;/li&gt;&lt;li style=&quot;font-size: 10px;&quot;&gt;Waypoints:&lt;/li&gt;&lt;/ul&gt;" style="text;strokeColor=none;fillColor=none;html=1;whiteSpace=wrap;verticalAlign=middle;overflow=hidden;fontSize=10;" parent="15" vertex="1">
                    <mxGeometry y="10" width="100" height="120" as="geometry"/>
                </mxCell>
                <mxCell id="14" style="edgeStyle=none;html=1;exitX=1;exitY=1;exitDx=0;exitDy=0;entryX=1.007;entryY=0.849;entryDx=0;entryDy=0;entryPerimeter=0;fontSize=10;" parent="15" source="11" target="11" edge="1">
                    <mxGeometry relative="1" as="geometry"/>
                </mxCell>
                <mxCell id="16" value="" style="shape=ext;double=1;rounded=0;whiteSpace=wrap;html=1;fontSize=13;" parent="1" vertex="1">
                    <mxGeometry x="170" y="240" width="220" height="130" as="geometry"/>
                </mxCell>
                <mxCell id="19" value="&lt;ul&gt;&lt;li&gt;Start Location:&lt;/li&gt;&lt;li&gt;Ending Location:&lt;/li&gt;&lt;li&gt;Way Points&lt;/li&gt;&lt;/ul&gt;" style="text;strokeColor=none;fillColor=none;html=1;whiteSpace=wrap;verticalAlign=middle;overflow=hidden;fontSize=10;" parent="1" vertex="1">
                    <mxGeometry x="170" y="255" width="100" height="115" as="geometry"/>
                </mxCell>
                <mxCell id="20" value="Day 2:" style="text;strokeColor=none;fillColor=none;html=1;fontSize=17;fontStyle=1;verticalAlign=middle;align=center;" parent="1" vertex="1">
                    <mxGeometry x="230" y="240" width="100" height="40" as="geometry"/>
                </mxCell>
                <mxCell id="24" value="" style="line;strokeWidth=4;direction=south;html=1;perimeter=backbonePerimeter;points=[];outlineConnect=0;fontSize=10;fillColor=#99FF33;" parent="1" vertex="1">
                    <mxGeometry x="120" y="20" width="10" height="480" as="geometry"/>
                </mxCell>
                <mxCell id="25" value="Navigation" style="text;strokeColor=none;fillColor=none;html=1;fontSize=16;fontStyle=1;verticalAlign=middle;align=center;" parent="1" vertex="1">
                    <mxGeometry x="20" y="40" width="100" height="30" as="geometry"/>
                </mxCell>
                <mxCell id="26" value="Add Hotels Button" style="text;strokeColor=none;fillColor=none;html=1;fontSize=13;fontStyle=1;verticalAlign=middle;align=center;" vertex="1" parent="1">
                    <mxGeometry x="435" y="330" width="100" height="40" as="geometry"/>
                </mxCell>
            </root>
        </mxGraphModel>
    </diagram>
</mxfile>